G75*
%MOIN*%
%OFA0B0*%
%FSLAX25Y25*%
%IPPOS*%
%LPD*%
%AMOC8*
5,1,8,0,0,1.08239X$1,22.5*
%
%ADD10C,0.16548*%
%ADD11R,0.05131X0.04737*%
%ADD12C,0.13398*%
%ADD13R,0.06400X0.06400*%
%ADD14C,0.06400*%
%ADD15C,0.10400*%
%ADD16C,0.13600*%
%ADD17R,0.11824X0.10249*%
%ADD18OC8,0.09300*%
%ADD19R,0.04762X0.04762*%
D10*
X0016600Y0062400D03*
X0016400Y0097000D03*
X0079600Y0097000D03*
X0079800Y0062400D03*
X0079500Y0142100D03*
X0079700Y0176500D03*
X0016500Y0176500D03*
X0016300Y0142100D03*
X0016200Y0239100D03*
X0016600Y0273800D03*
X0079800Y0273800D03*
X0079400Y0239100D03*
D11*
X0268350Y0228146D03*
X0268350Y0221454D03*
X0277750Y0209146D03*
X0277750Y0202454D03*
X0268850Y0192646D03*
X0268850Y0185954D03*
X0279350Y0181346D03*
X0279350Y0174654D03*
X0268750Y0168896D03*
X0268750Y0162204D03*
X0279600Y0150146D03*
X0279600Y0143454D03*
X0269200Y0137146D03*
X0269200Y0130454D03*
X0279700Y0119246D03*
X0279700Y0112554D03*
X0389800Y0210954D03*
X0389800Y0217646D03*
X0329700Y0271254D03*
X0329700Y0277946D03*
X0276700Y0279746D03*
X0276700Y0273054D03*
X0268450Y0261846D03*
X0268450Y0255154D03*
X0277950Y0245746D03*
X0277950Y0239054D03*
X0267300Y0288504D03*
X0267300Y0295196D03*
X0276400Y0307304D03*
X0276400Y0313996D03*
D12*
X0026900Y0026800D03*
X0027400Y0314500D03*
X0545000Y0029000D03*
X0545500Y0313000D03*
D13*
X0504600Y0195900D03*
X0504700Y0116000D03*
D14*
X0494700Y0121000D03*
X0504700Y0126000D03*
X0494700Y0131000D03*
X0504700Y0136000D03*
X0494700Y0141000D03*
X0504700Y0146000D03*
X0494700Y0151000D03*
X0494600Y0200900D03*
X0504600Y0205900D03*
X0494600Y0210900D03*
X0504600Y0215900D03*
X0494600Y0220900D03*
X0504600Y0225900D03*
X0494600Y0230900D03*
D15*
X0517600Y0244400D03*
X0517600Y0182400D03*
X0517700Y0164500D03*
X0517700Y0102500D03*
D16*
X0529700Y0111000D03*
X0529700Y0156000D03*
X0529600Y0190900D03*
X0529600Y0235900D03*
D17*
X0517500Y0225902D03*
X0517500Y0201098D03*
X0517700Y0146802D03*
X0517700Y0121998D03*
D18*
X0477600Y0115700D03*
X0477300Y0099700D03*
X0336900Y0013200D03*
X0308500Y0057700D03*
X0248600Y0073900D03*
X0190600Y0035300D03*
X0168500Y0028800D03*
X0155200Y0056200D03*
X0470900Y0258800D03*
X0471300Y0303600D03*
D19*
X0447500Y0279800D03*
X0381650Y0242150D03*
X0377400Y0229100D03*
X0405600Y0229600D03*
X0390600Y0202700D03*
X0343500Y0205900D03*
X0335400Y0206400D03*
X0329400Y0199300D03*
X0322750Y0215150D03*
X0322850Y0223000D03*
X0338700Y0215700D03*
X0338600Y0233400D03*
X0335600Y0261100D03*
X0349200Y0261500D03*
X0354800Y0265200D03*
X0362100Y0263600D03*
X0364000Y0270000D03*
X0369900Y0272200D03*
X0375400Y0275500D03*
X0360100Y0297700D03*
X0348900Y0300800D03*
X0336000Y0299700D03*
X0329700Y0303000D03*
X0323500Y0299900D03*
X0311400Y0299900D03*
X0329800Y0290100D03*
X0324400Y0278000D03*
X0324400Y0271200D03*
X0275400Y0265100D03*
X0270200Y0270700D03*
X0267100Y0279100D03*
X0256600Y0276300D03*
X0273100Y0287600D03*
X0273600Y0297900D03*
X0282800Y0303000D03*
X0285100Y0316800D03*
X0298600Y0318500D03*
X0256200Y0312800D03*
X0256500Y0293400D03*
X0256400Y0260300D03*
X0261800Y0246900D03*
X0277600Y0253200D03*
X0275900Y0229100D03*
X0275600Y0218700D03*
X0256000Y0212400D03*
X0271200Y0201900D03*
X0256000Y0197000D03*
X0273800Y0186200D03*
X0286700Y0174100D03*
X0256100Y0166500D03*
X0268500Y0155200D03*
X0256200Y0151300D03*
X0275300Y0136900D03*
X0256000Y0135500D03*
X0256200Y0120000D03*
X0269000Y0112900D03*
X0271800Y0122500D03*
X0285400Y0109600D03*
X0255300Y0101800D03*
X0242600Y0103700D03*
X0234100Y0110400D03*
X0227100Y0117900D03*
X0215300Y0115300D03*
X0214800Y0124000D03*
X0197400Y0111300D03*
X0182200Y0111300D03*
X0162100Y0099300D03*
X0154200Y0111100D03*
X0141900Y0106900D03*
X0130900Y0118200D03*
X0154300Y0123300D03*
X0150000Y0142600D03*
X0162100Y0150100D03*
X0147500Y0163300D03*
X0162100Y0165900D03*
X0182200Y0160800D03*
X0198900Y0143300D03*
X0189400Y0127100D03*
X0130900Y0092000D03*
X0148100Y0086800D03*
X0162000Y0084600D03*
X0162100Y0070300D03*
X0183600Y0073900D03*
X0194500Y0080600D03*
X0204900Y0084900D03*
X0211700Y0082300D03*
X0197300Y0070600D03*
X0183500Y0056300D03*
X0185300Y0047400D03*
X0162200Y0047900D03*
X0221050Y0040200D03*
X0234300Y0051300D03*
X0229200Y0055800D03*
X0223300Y0056300D03*
X0241400Y0030500D03*
X0270900Y0033700D03*
X0284900Y0033200D03*
X0303400Y0033400D03*
X0310700Y0042600D03*
X0341000Y0037900D03*
X0341000Y0032700D03*
X0339000Y0027600D03*
X0403000Y0054500D03*
X0421200Y0062200D03*
X0484400Y0050700D03*
X0319600Y0093200D03*
X0297200Y0082900D03*
X0241100Y0087700D03*
X0290200Y0151100D03*
X0256000Y0181700D03*
X0221000Y0198100D03*
X0212900Y0194300D03*
X0203100Y0187700D03*
X0207000Y0180800D03*
X0217200Y0168700D03*
X0161900Y0186800D03*
X0154000Y0178100D03*
X0139800Y0188400D03*
X0137100Y0196600D03*
X0157800Y0204000D03*
X0157200Y0211600D03*
X0168600Y0216900D03*
X0173500Y0211600D03*
X0180300Y0208800D03*
X0187900Y0208200D03*
X0197400Y0214000D03*
X0211800Y0208200D03*
X0212400Y0216500D03*
X0213000Y0225100D03*
X0213200Y0235100D03*
X0213600Y0247000D03*
X0201100Y0253900D03*
X0212200Y0260900D03*
X0194500Y0272300D03*
X0189200Y0285100D03*
X0156300Y0287400D03*
X0156800Y0259000D03*
X0150100Y0249000D03*
X0150500Y0239300D03*
X0174500Y0244900D03*
X0189800Y0242500D03*
X0197500Y0241200D03*
X0184000Y0230500D03*
X0186400Y0257700D03*
X0256200Y0228000D03*
X0130100Y0178700D03*
X0359000Y0315000D03*
M02*
