%
M48
M72
T01C0.02362
T02C0.03600
T03C0.05200
T04C0.06400
T05C0.12598
T06C0.12800
T07C0.15748
%
T01
X148100Y86800
X162000Y84600
X162100Y70300
X183600Y73900
X194500Y80600
X204900Y84900
X211700Y82300
X197300Y70600
X183500Y56300
X185300Y47400
X162200Y47900
X221050Y40200
X234300Y51300
X229200Y55800
X223300Y56300
X241400Y30500
X270900Y33700
X284900Y33200
X303400Y33400
X310700Y42600
X341000Y37900
X341000Y32700
X339000Y27600
X403000Y54500
X421200Y62200
X484400Y50700
X319600Y93200
X297200Y82900
X255300Y101800
X242600Y103700
X234100Y110400
X227100Y117900
X215300Y115300
X214800Y124000
X197400Y111300
X182200Y111300
X162100Y99300
X154200Y111100
X141900Y106900
X130900Y118200
X154300Y123300
X150000Y142600
X162100Y150100
X147500Y163300
X162100Y165900
X182200Y160800
X198900Y143300
X189400Y127100
X256000Y135500
X275300Y136900
X290200Y151100
X268500Y155200
X256200Y151300
X256100Y166500
X256000Y181700
X273800Y186200
X286700Y174100
X256000Y197000
X271200Y201900
X256000Y212400
X256200Y228000
X275900Y229100
X275600Y218700
X261800Y246900
X277600Y253200
X275400Y265100
X270200Y270700
X267100Y279100
X256600Y276300
X273100Y287600
X273600Y297900
X282800Y303000
X285100Y316800
X298600Y318500
X311400Y299900
X323500Y299900
X329700Y303000
X336000Y299700
X329800Y290100
X348900Y300800
X360100Y297700
X359000Y315000
X324400Y278000
X324400Y271200
X335600Y261100
X349200Y261500
X354800Y265200
X362100Y263600
X364000Y270000
X369900Y272200
X375400Y275500
X381650Y242150
X377400Y229100
X405600Y229600
X390600Y202700
X343500Y205900
X335400Y206400
X329400Y199300
X322750Y215150
X322850Y223000
X338700Y215700
X338600Y233400
X256400Y260300
X213600Y247000
X201100Y253900
X212200Y260900
X194500Y272300
X189200Y285100
X156300Y287400
X156800Y259000
X150100Y249000
X150500Y239300
X174500Y244900
X189800Y242500
X197500Y241200
X213200Y235100
X213000Y225100
X212400Y216500
X211800Y208200
X197400Y214000
X187900Y208200
X180300Y208800
X173500Y211600
X168600Y216900
X157200Y211600
X157800Y204000
X137100Y196600
X139800Y188400
X130100Y178700
X154000Y178100
X161900Y186800
X203100Y187700
X207000Y180800
X212900Y194300
X221000Y198100
X217200Y168700
X256200Y120000
X269000Y112900
X271800Y122500
X285400Y109600
X241100Y87700
X130900Y92000
X184000Y230500
X186400Y257700
X256500Y293400
X256200Y312800
X447500Y279800
T02
X494600Y230900
X504600Y225900
X494600Y220900
X504600Y215900
X494600Y210900
X504600Y205900
X494600Y200900
X504600Y195900
X494700Y151000
X504700Y146000
X494700Y141000
X504700Y136000
X494700Y131000
X504700Y126000
X494700Y121000
X504700Y116000
T03
X477600Y115700
X477300Y99700
X336900Y13200
X308500Y57700
X248600Y73900
X190600Y35300
X168500Y28800
X155200Y56200
X470900Y258800
X471300Y303600
T04
X517600Y244400
X517600Y182400
X517700Y164500
X517700Y102500
T05
X26900Y26800
X27400Y314500
X545000Y29000
X545500Y313000
T06
X529600Y235900
X529600Y190900
X529700Y156000
X529700Y111000
T07
X79600Y97000
X79800Y62400
X16600Y62400
X16400Y97000
X16300Y142100
X16500Y176500
X79700Y176500
X79500Y142100
X79400Y239100
X79800Y273800
X16600Y273800
X16200Y239100
M30
