G75*
%MOIN*%
%OFA0B0*%
%FSLAX25Y25*%
%IPPOS*%
%LPD*%
%AMOC8*
5,1,8,0,0,1.08239X$1,22.5*
%
%ADD10C,0.16548*%
%ADD11R,0.04737X0.05131*%
%ADD12R,0.06312X0.04737*%
%ADD13R,0.05603X0.04383*%
%ADD14R,0.07887X0.07099*%
%ADD15R,0.03400X0.08800*%
%ADD16R,0.07099X0.07887*%
%ADD17R,0.05131X0.04737*%
%ADD18R,0.04331X0.01969*%
%ADD19R,0.05721X0.01981*%
%ADD20R,0.08674X0.04343*%
%ADD21R,0.09600X0.05600*%
%ADD22R,0.09461X0.14973*%
%ADD23R,0.06312X0.06312*%
%ADD24R,0.13398X0.07887*%
%ADD25R,0.11824X0.10249*%
%ADD26R,0.05603X0.03241*%
%ADD27R,0.07887X0.13398*%
%ADD28R,0.08300X0.04800*%
%ADD29R,0.05524X0.05524*%
%ADD30C,0.13398*%
%ADD31R,0.07099X0.03950*%
%ADD32R,0.12611X0.09068*%
%ADD33R,0.06400X0.06400*%
%ADD34C,0.06400*%
%ADD35C,0.10400*%
%ADD36C,0.13600*%
%ADD37R,0.11824X0.15761*%
%ADD38R,0.15761X0.11824*%
%ADD39R,0.16154X0.08674*%
%ADD40R,0.06706X0.04737*%
%ADD41OC8,0.09300*%
%ADD42R,0.04762X0.04762*%
D10*
X0016600Y0062400D03*
X0016400Y0097000D03*
X0079600Y0097000D03*
X0079800Y0062400D03*
X0079500Y0142100D03*
X0079700Y0176500D03*
X0016500Y0176500D03*
X0016300Y0142100D03*
X0016200Y0239100D03*
X0016600Y0273800D03*
X0079800Y0273800D03*
X0079400Y0239100D03*
D11*
X0147254Y0178900D03*
X0153946Y0178900D03*
X0153946Y0166100D03*
X0147254Y0166100D03*
X0147354Y0156800D03*
X0154046Y0156800D03*
X0154046Y0117000D03*
X0147354Y0117000D03*
X0147254Y0098200D03*
X0153946Y0098200D03*
X0154346Y0084600D03*
X0147654Y0084600D03*
X0149954Y0070200D03*
X0156646Y0070200D03*
X0170704Y0060650D03*
X0177396Y0060650D03*
X0177496Y0052250D03*
X0170804Y0052250D03*
X0152946Y0047700D03*
X0146254Y0047700D03*
X0202554Y0076800D03*
X0209246Y0076800D03*
X0241354Y0062950D03*
X0248046Y0062950D03*
X0248146Y0053300D03*
X0241454Y0053300D03*
X0256200Y0120004D03*
X0256200Y0126696D03*
X0256100Y0135454D03*
X0256100Y0142146D03*
X0248546Y0141350D03*
X0241854Y0141350D03*
X0235646Y0141350D03*
X0228954Y0141350D03*
X0229104Y0156500D03*
X0235796Y0156500D03*
X0241854Y0156500D03*
X0248546Y0156500D03*
X0256200Y0157846D03*
X0256200Y0151154D03*
X0256100Y0166454D03*
X0256100Y0173146D03*
X0248546Y0171800D03*
X0241854Y0171800D03*
X0235696Y0171800D03*
X0229004Y0171800D03*
X0229104Y0187200D03*
X0235796Y0187200D03*
X0241954Y0187200D03*
X0248646Y0187200D03*
X0256000Y0188396D03*
X0256000Y0181704D03*
X0256000Y0196954D03*
X0256000Y0203646D03*
X0248496Y0202350D03*
X0241804Y0202350D03*
X0235796Y0202350D03*
X0229104Y0202350D03*
X0228854Y0217700D03*
X0235546Y0217700D03*
X0241554Y0217700D03*
X0248246Y0217700D03*
X0256000Y0219096D03*
X0256000Y0212404D03*
X0256200Y0228104D03*
X0256200Y0234796D03*
X0248346Y0233300D03*
X0241654Y0233300D03*
X0235646Y0233300D03*
X0228954Y0233300D03*
X0229004Y0248600D03*
X0235696Y0248600D03*
X0241704Y0248600D03*
X0248396Y0248600D03*
X0256200Y0250696D03*
X0256200Y0244004D03*
X0256400Y0260304D03*
X0248446Y0263500D03*
X0241754Y0263500D03*
X0235746Y0263750D03*
X0229054Y0263750D03*
X0229154Y0279450D03*
X0235846Y0279450D03*
X0241754Y0279450D03*
X0248446Y0279450D03*
X0256400Y0276304D03*
X0256400Y0282996D03*
X0256400Y0293354D03*
X0248446Y0294850D03*
X0241754Y0294850D03*
X0235846Y0294850D03*
X0229154Y0294850D03*
X0229054Y0310100D03*
X0235746Y0310100D03*
X0241654Y0310100D03*
X0248346Y0310100D03*
X0256200Y0312804D03*
X0256200Y0319496D03*
X0256400Y0300046D03*
X0256400Y0266996D03*
X0409954Y0080900D03*
X0416646Y0080900D03*
D12*
X0221581Y0143310D03*
X0212919Y0147050D03*
X0221581Y0150790D03*
X0221481Y0158560D03*
X0212819Y0162300D03*
X0221481Y0166040D03*
X0221731Y0173660D03*
X0213069Y0177400D03*
X0221731Y0181140D03*
X0221831Y0188960D03*
X0213169Y0192700D03*
X0221831Y0196440D03*
X0221831Y0204360D03*
X0213169Y0208100D03*
X0221831Y0211840D03*
X0221831Y0219810D03*
X0213169Y0223550D03*
X0221831Y0227290D03*
X0222081Y0235210D03*
X0213419Y0238950D03*
X0222081Y0242690D03*
X0222331Y0250510D03*
X0213669Y0254250D03*
X0222331Y0257990D03*
X0222331Y0265810D03*
X0213669Y0269550D03*
X0222331Y0273290D03*
X0222331Y0281460D03*
X0213669Y0285200D03*
X0222331Y0288940D03*
X0222331Y0296760D03*
X0213669Y0300500D03*
X0222331Y0304240D03*
X0222331Y0311810D03*
X0213669Y0315550D03*
X0222331Y0319290D03*
D13*
X0267300Y0298748D03*
X0276400Y0304502D03*
X0276400Y0317298D03*
X0267300Y0285952D03*
X0276700Y0282948D03*
X0276700Y0270152D03*
X0268200Y0265148D03*
X0268200Y0252352D03*
X0277700Y0248798D03*
X0277700Y0236002D03*
X0267950Y0231648D03*
X0267950Y0218852D03*
X0277750Y0212148D03*
X0277750Y0199352D03*
X0268850Y0195698D03*
X0279100Y0184398D03*
X0268850Y0182902D03*
X0268500Y0171948D03*
X0279100Y0171602D03*
X0268500Y0159152D03*
X0279500Y0153298D03*
X0279500Y0140502D03*
X0269300Y0139998D03*
X0269300Y0127202D03*
X0279850Y0122198D03*
X0279850Y0109402D03*
D14*
X0162200Y0106938D03*
X0162200Y0117962D03*
X0264400Y0033412D03*
X0264400Y0022388D03*
X0295700Y0022188D03*
X0295700Y0033212D03*
X0446200Y0029412D03*
X0446200Y0018388D03*
X0398000Y0233788D03*
X0398000Y0244812D03*
D15*
X0209450Y0118700D03*
X0204450Y0118700D03*
X0199450Y0118700D03*
X0194450Y0118700D03*
X0189450Y0118700D03*
X0184450Y0118700D03*
X0179450Y0118700D03*
X0174450Y0118700D03*
X0174450Y0094500D03*
X0179450Y0094500D03*
X0184450Y0094500D03*
X0189450Y0094500D03*
X0194450Y0094500D03*
X0199450Y0094500D03*
X0204450Y0094500D03*
X0209450Y0094500D03*
D16*
X0212662Y0040150D03*
X0201638Y0040150D03*
X0421288Y0067800D03*
X0432312Y0067800D03*
X0450988Y0280200D03*
X0462012Y0280200D03*
D17*
X0388600Y0277154D03*
X0388600Y0283846D03*
X0366800Y0284954D03*
X0358500Y0284954D03*
X0358500Y0291646D03*
X0366800Y0291646D03*
X0348900Y0301254D03*
X0348900Y0307946D03*
X0348900Y0313154D03*
X0348900Y0319846D03*
X0336000Y0318246D03*
X0336000Y0311554D03*
X0336000Y0306446D03*
X0336000Y0299754D03*
X0323500Y0300054D03*
X0323500Y0306746D03*
X0323500Y0311854D03*
X0323500Y0318546D03*
X0311400Y0318346D03*
X0311400Y0311654D03*
X0311400Y0306546D03*
X0311400Y0299854D03*
X0382650Y0249046D03*
X0382650Y0242354D03*
X0363700Y0243246D03*
X0363700Y0236554D03*
X0354700Y0236554D03*
X0354700Y0243246D03*
X0338746Y0223100D03*
X0332054Y0223100D03*
X0332154Y0215100D03*
X0338846Y0215100D03*
X0211850Y0134596D03*
X0203550Y0134596D03*
X0203550Y0127904D03*
X0211850Y0127904D03*
X0230800Y0044746D03*
X0230800Y0038054D03*
X0394600Y0042254D03*
X0394600Y0048946D03*
X0394900Y0060754D03*
X0394900Y0067446D03*
X0409900Y0057546D03*
X0409900Y0050854D03*
D18*
X0217925Y0049802D03*
X0217925Y0047243D03*
X0217925Y0052361D03*
X0217925Y0054920D03*
X0217925Y0057480D03*
X0217925Y0060039D03*
X0217925Y0062598D03*
X0217925Y0065157D03*
X0196075Y0065157D03*
X0196075Y0062598D03*
X0196075Y0060039D03*
X0196075Y0057480D03*
X0196075Y0054920D03*
X0196075Y0052361D03*
X0196075Y0049802D03*
X0196075Y0047243D03*
D19*
X0315761Y0249546D03*
X0315761Y0251514D03*
X0315761Y0253483D03*
X0315761Y0255451D03*
X0315761Y0257420D03*
X0315761Y0259388D03*
X0315761Y0261357D03*
X0315761Y0263325D03*
X0315761Y0265294D03*
X0315761Y0267262D03*
X0315761Y0269231D03*
X0315761Y0271199D03*
X0315761Y0273168D03*
X0315761Y0275136D03*
X0315761Y0277105D03*
X0315761Y0279073D03*
X0315761Y0281042D03*
X0315761Y0283010D03*
X0315761Y0284979D03*
X0315761Y0286947D03*
X0315761Y0288916D03*
X0315761Y0290884D03*
X0315761Y0292853D03*
X0315761Y0294821D03*
X0342532Y0294821D03*
X0342532Y0292853D03*
X0342532Y0290884D03*
X0342532Y0288916D03*
X0342532Y0286947D03*
X0342532Y0284979D03*
X0342532Y0283010D03*
X0342532Y0281042D03*
X0342532Y0279073D03*
X0342532Y0277105D03*
X0342532Y0275136D03*
X0342532Y0273168D03*
X0342532Y0271199D03*
X0342532Y0269231D03*
X0342532Y0267262D03*
X0342532Y0265294D03*
X0342532Y0263325D03*
X0342532Y0261357D03*
X0342532Y0259388D03*
X0342532Y0257420D03*
X0342532Y0255451D03*
X0342532Y0253483D03*
X0342532Y0251514D03*
X0342532Y0249546D03*
D20*
X0341100Y0074409D03*
X0341100Y0064606D03*
X0341100Y0054803D03*
X0341100Y0045000D03*
X0373147Y0045000D03*
X0373147Y0054803D03*
X0373147Y0064606D03*
X0373147Y0074409D03*
D21*
X0377400Y0204800D03*
X0377400Y0213900D03*
X0377400Y0223000D03*
D22*
X0401801Y0213900D03*
D23*
X0325080Y0073800D03*
X0310120Y0073800D03*
X0319600Y0057080D03*
X0319600Y0042120D03*
X0276000Y0033580D03*
X0276000Y0018620D03*
D24*
X0276100Y0049076D03*
X0276100Y0071124D03*
X0168300Y0200376D03*
X0168300Y0222424D03*
X0168300Y0232176D03*
X0168300Y0254224D03*
X0168300Y0263876D03*
X0168300Y0285924D03*
X0168300Y0295776D03*
X0168300Y0317824D03*
D25*
X0295300Y0071102D03*
X0295300Y0046298D03*
X0466000Y0038602D03*
X0466000Y0013798D03*
D26*
X0435618Y0046860D03*
X0425382Y0046860D03*
X0425382Y0050600D03*
X0425382Y0054340D03*
X0435618Y0054340D03*
D27*
X0203824Y0197700D03*
X0181776Y0197700D03*
X0150024Y0201500D03*
X0127976Y0201500D03*
X0161976Y0179700D03*
X0184024Y0179700D03*
X0181976Y0219800D03*
X0204024Y0219800D03*
X0203824Y0243800D03*
X0181776Y0243800D03*
X0181776Y0266900D03*
X0203824Y0266900D03*
X0203824Y0290500D03*
X0181776Y0290500D03*
X0181476Y0314600D03*
X0203524Y0314600D03*
D28*
X0471400Y0290200D03*
X0471400Y0280200D03*
X0471400Y0270200D03*
X0504400Y0270200D03*
X0504400Y0280200D03*
X0504400Y0290200D03*
D29*
X0381184Y0257500D03*
X0372916Y0257500D03*
X0394466Y0080400D03*
X0402734Y0080400D03*
D30*
X0026900Y0026800D03*
X0027400Y0314500D03*
X0545000Y0029000D03*
X0545500Y0313000D03*
D31*
X0140731Y0288588D03*
X0140731Y0283667D03*
X0140731Y0278746D03*
X0140731Y0273824D03*
X0140731Y0268903D03*
X0140731Y0263982D03*
X0140731Y0259061D03*
X0140731Y0254139D03*
X0140731Y0249218D03*
X0140731Y0244297D03*
X0140731Y0239376D03*
X0140731Y0234454D03*
X0140731Y0229533D03*
X0140731Y0224612D03*
X0140631Y0176524D03*
X0140631Y0171603D03*
X0140631Y0166682D03*
X0140631Y0161761D03*
X0140631Y0156839D03*
X0140631Y0151918D03*
X0140631Y0146997D03*
X0140631Y0142076D03*
X0140631Y0096824D03*
X0140631Y0091903D03*
X0140631Y0086982D03*
X0140631Y0082061D03*
X0140631Y0077139D03*
X0140631Y0072218D03*
X0140631Y0067297D03*
X0140631Y0062376D03*
X0491269Y0062961D03*
X0491269Y0067882D03*
X0491269Y0058039D03*
X0491269Y0053118D03*
D32*
X0502687Y0043079D03*
X0502687Y0077921D03*
X0129213Y0052336D03*
X0129213Y0106864D03*
X0129213Y0132036D03*
X0129213Y0186564D03*
X0129313Y0214572D03*
X0129313Y0298628D03*
D33*
X0504600Y0195900D03*
X0504700Y0116000D03*
D34*
X0494700Y0121000D03*
X0504700Y0126000D03*
X0494700Y0131000D03*
X0504700Y0136000D03*
X0494700Y0141000D03*
X0504700Y0146000D03*
X0494700Y0151000D03*
X0494600Y0200900D03*
X0504600Y0205900D03*
X0494600Y0210900D03*
X0504600Y0215900D03*
X0494600Y0220900D03*
X0504600Y0225900D03*
X0494600Y0230900D03*
D35*
X0517600Y0244400D03*
X0517600Y0182400D03*
X0517700Y0164500D03*
X0517700Y0102500D03*
D36*
X0529700Y0111000D03*
X0529700Y0156000D03*
X0529600Y0190900D03*
X0529600Y0235900D03*
D37*
X0429267Y0018000D03*
X0400133Y0018000D03*
D38*
X0456200Y0060333D03*
X0456200Y0089467D03*
D39*
X0477818Y0083432D03*
X0477818Y0066700D03*
D40*
X0437000Y0274500D03*
X0419000Y0274500D03*
X0419000Y0286500D03*
X0437000Y0286500D03*
D41*
X0471300Y0303600D03*
X0470900Y0258800D03*
X0477600Y0115700D03*
X0477300Y0099700D03*
X0336900Y0013200D03*
X0308500Y0057700D03*
X0248600Y0073900D03*
X0190600Y0035300D03*
X0168500Y0028800D03*
X0155200Y0056200D03*
D42*
X0162200Y0047900D03*
X0183500Y0056300D03*
X0185300Y0047400D03*
X0221050Y0040200D03*
X0234300Y0051300D03*
X0229200Y0055800D03*
X0223300Y0056300D03*
X0197300Y0070600D03*
X0183600Y0073900D03*
X0194500Y0080600D03*
X0204900Y0084900D03*
X0211700Y0082300D03*
X0241100Y0087700D03*
X0255300Y0101800D03*
X0242600Y0103700D03*
X0234100Y0110400D03*
X0227100Y0117900D03*
X0215300Y0115300D03*
X0214800Y0124000D03*
X0197400Y0111300D03*
X0182200Y0111300D03*
X0162100Y0099300D03*
X0154200Y0111100D03*
X0141900Y0106900D03*
X0130900Y0118200D03*
X0154300Y0123300D03*
X0150000Y0142600D03*
X0162100Y0150100D03*
X0147500Y0163300D03*
X0162100Y0165900D03*
X0182200Y0160800D03*
X0198900Y0143300D03*
X0189400Y0127100D03*
X0256000Y0135500D03*
X0275300Y0136900D03*
X0290200Y0151100D03*
X0268500Y0155200D03*
X0256200Y0151300D03*
X0256100Y0166500D03*
X0256000Y0181700D03*
X0273800Y0186200D03*
X0286700Y0174100D03*
X0256000Y0197000D03*
X0271200Y0201900D03*
X0256000Y0212400D03*
X0256200Y0228000D03*
X0275900Y0229100D03*
X0275600Y0218700D03*
X0261800Y0246900D03*
X0277600Y0253200D03*
X0275400Y0265100D03*
X0270200Y0270700D03*
X0267100Y0279100D03*
X0256600Y0276300D03*
X0273100Y0287600D03*
X0273600Y0297900D03*
X0282800Y0303000D03*
X0285100Y0316800D03*
X0298600Y0318500D03*
X0311400Y0299900D03*
X0323500Y0299900D03*
X0329700Y0303000D03*
X0336000Y0299700D03*
X0329800Y0290100D03*
X0348900Y0300800D03*
X0360100Y0297700D03*
X0359000Y0315000D03*
X0324400Y0278000D03*
X0324400Y0271200D03*
X0335600Y0261100D03*
X0349200Y0261500D03*
X0354800Y0265200D03*
X0362100Y0263600D03*
X0364000Y0270000D03*
X0369900Y0272200D03*
X0375400Y0275500D03*
X0381650Y0242150D03*
X0377400Y0229100D03*
X0405600Y0229600D03*
X0390600Y0202700D03*
X0343500Y0205900D03*
X0335400Y0206400D03*
X0329400Y0199300D03*
X0322750Y0215150D03*
X0322850Y0223000D03*
X0338700Y0215700D03*
X0338600Y0233400D03*
X0256400Y0260300D03*
X0213600Y0247000D03*
X0201100Y0253900D03*
X0212200Y0260900D03*
X0194500Y0272300D03*
X0189200Y0285100D03*
X0156300Y0287400D03*
X0156800Y0259000D03*
X0150100Y0249000D03*
X0150500Y0239300D03*
X0174500Y0244900D03*
X0189800Y0242500D03*
X0197500Y0241200D03*
X0213200Y0235100D03*
X0213000Y0225100D03*
X0212400Y0216500D03*
X0211800Y0208200D03*
X0197400Y0214000D03*
X0187900Y0208200D03*
X0180300Y0208800D03*
X0173500Y0211600D03*
X0168600Y0216900D03*
X0157200Y0211600D03*
X0157800Y0204000D03*
X0137100Y0196600D03*
X0139800Y0188400D03*
X0130100Y0178700D03*
X0154000Y0178100D03*
X0161900Y0186800D03*
X0203100Y0187700D03*
X0207000Y0180800D03*
X0212900Y0194300D03*
X0221000Y0198100D03*
X0217200Y0168700D03*
X0256200Y0120000D03*
X0269000Y0112900D03*
X0271800Y0122500D03*
X0285400Y0109600D03*
X0319600Y0093200D03*
X0297200Y0082900D03*
X0310700Y0042600D03*
X0303400Y0033400D03*
X0284900Y0033200D03*
X0270900Y0033700D03*
X0241400Y0030500D03*
X0162100Y0070300D03*
X0162000Y0084600D03*
X0148100Y0086800D03*
X0130900Y0092000D03*
X0341000Y0037900D03*
X0341000Y0032700D03*
X0339000Y0027600D03*
X0403000Y0054500D03*
X0421200Y0062200D03*
X0484400Y0050700D03*
X0184000Y0230500D03*
X0186400Y0257700D03*
X0256500Y0293400D03*
X0256200Y0312800D03*
X0447500Y0279800D03*
M02*
